<svg width="26" height="26" viewBox="0 0 26 26" fill="none"
    xmlns="http://www.w3.org/2000/svg" preserveAspectRatio='xMinYMin'>
    <g id="compa">
    </g>
    <path d="M13.442 19.7719C15.671 19.7137 17.6776 18.5448 19.4676 16.2594L23.5549 20.9408C20.4367 24.2496 17.0676 25.936 13.442 26V19.7719ZM0 13.3518C0 13.253 0 13.1542 0 13.0495C0 9.19396 1.29407 6.05368 3.87645 3.63454C6.46453 1.20957 9.53711 0 13.0886 0C14.8615 0 16.6629 0.378029 18.4814 1.1282C20.3056 1.87837 21.9018 2.98325 23.2813 4.45451L19.7014 9.22881C18.9033 8.26348 17.9284 7.51332 16.7826 6.98413C15.6368 6.44913 14.4966 6.18744 13.3622 6.18744C11.5551 6.18744 10.0046 6.7864 8.69915 7.99016C7.39941 9.19392 6.74951 10.8629 6.74951 13.0029C6.74951 13.1192 6.74952 13.2355 6.75522 13.3518H0Z" fill="#FF0039"/>
</svg>
